<svg width="337" height="205" viewBox="0 0 337 205" fill="none" xmlns="http://www.w3.org/2000/svg">
<g clip-path="url(#clip0)">
<path d="M193.952 76.7859C200.102 76.7859 205.087 71.7893 205.087 65.6257C205.087 59.4622 200.102 54.4656 193.952 54.4656C187.802 54.4656 182.816 59.4622 182.816 65.6257C182.816 71.7893 187.802 76.7859 193.952 76.7859Z" fill="#2F2E41"/>
<path d="M197.054 54.7729C198.981 54.7731 200.875 55.2746 202.551 56.2282C204.227 57.1817 205.627 58.5548 206.615 60.2132C207.603 61.8716 208.144 63.7585 208.187 65.6894C208.229 67.6204 207.771 69.5293 206.856 71.2295C207.822 70.019 208.525 68.6201 208.921 67.1221C209.317 65.6241 209.398 64.0598 209.157 62.5289C208.917 60.998 208.361 59.5341 207.525 58.2305C206.689 56.9268 205.591 55.812 204.301 54.9572C203.012 54.1023 201.558 53.526 200.034 53.2652C198.51 53.0043 196.948 53.0645 195.448 53.442C193.949 53.8195 192.544 54.506 191.324 55.4576C190.103 56.4093 189.094 57.6054 188.36 58.9696C189.401 57.6598 190.724 56.6023 192.229 55.8757C193.734 55.1491 195.383 54.7721 197.054 54.7729V54.7729Z" fill="#2F2E41"/>
<path d="M173.144 65.6022C191.209 65.6022 205.854 50.9248 205.854 32.8192C205.854 14.7137 191.209 0.0362549 173.144 0.0362549C155.078 0.0362549 140.434 14.7137 140.434 32.8192C140.434 50.9248 155.078 65.6022 173.144 65.6022Z" fill="#2F2E41"/>
<path d="M147.472 12.4788C153.108 6.12602 160.987 2.21637 169.444 1.57504C177.902 0.933704 186.278 3.61086 192.804 9.04149C192.536 8.78666 192.272 8.52976 191.994 8.28213C185.51 2.50778 177.003 -0.449032 168.344 0.0619904C159.685 0.573013 151.583 4.51002 145.82 11.0072C140.057 17.5043 137.105 26.0295 137.613 34.7079C138.121 43.3862 142.047 51.5071 148.528 57.2844C148.806 57.5321 149.092 57.7654 149.376 58.0018C143.23 52.1426 139.596 44.1196 139.241 35.6261C138.886 27.1325 141.837 18.8329 147.472 12.4788V12.4788Z" fill="#2F2E41"/>
<path d="M172.867 65.3244C184.503 65.3244 193.935 55.8711 193.935 44.2099C193.935 32.5487 184.503 23.0955 172.867 23.0955C161.232 23.0955 151.8 32.5487 151.8 44.2099C151.8 55.8711 161.232 65.3244 172.867 65.3244Z" fill="#FFB8B8"/>
<path d="M157.898 50.8776C157.898 50.8776 160.67 76.4372 156.234 79.2154C151.799 81.9936 181.737 85.8831 181.737 85.8831C181.737 85.8831 177.302 58.1009 188.39 50.8776H157.898Z" fill="#FFB8B8"/>
<path d="M184.509 74.7703C184.509 74.7703 192.764 70.9067 180.875 72.2829C168.986 73.659 158.728 68.3804 158.728 68.3804C158.728 68.3804 155.126 64.7687 154.571 68.6582C154.017 72.5477 156.234 79.7711 144.037 80.8824C131.84 81.9937 120.752 78.6598 116.317 86.9945C111.882 95.3291 114.099 131.446 114.099 131.446C114.099 131.446 122.415 161.451 129.068 165.896C135.721 170.341 193.934 164.229 193.934 164.229L210.566 134.224V99.2187C210.566 99.2187 208.349 86.9945 192.825 90.3284C192.825 90.3284 182.846 88.1058 183.4 83.105C183.955 78.1042 184.509 74.7703 184.509 74.7703Z" fill="#D0CDE1"/>
<path d="M131.268 187.13C131.611 185.633 131.84 184.787 131.84 184.787L131.663 183.569L129.836 171.139L129.068 165.895C135.72 163.117 137.384 150.337 137.384 150.337L137.635 150.186L138.77 149.506V149.502L142.845 147.052L142.928 147.003L144.574 148.101L147.918 150.337C159.618 158.959 171.531 158.806 178.883 157.447C183.378 156.616 186.171 155.338 186.171 155.338L194.236 152.642L194.487 152.56L194.735 152.596L199.465 153.314L199.55 153.329L199.942 153.388L198.847 160.977L197.259 172.006C201.453 174.232 205.183 178.415 208.444 183.569C209.167 184.71 209.866 185.897 210.543 187.13C211.424 188.724 212.266 190.383 213.067 192.082C213.165 192.284 213.26 192.489 213.355 192.695C213.664 193.36 213.97 194.032 214.267 194.706H129.8C129.91 194.029 130.02 193.382 130.127 192.759C130.132 192.738 130.137 192.717 130.139 192.695C130.179 192.486 130.216 192.284 130.249 192.082C130.623 190.058 130.984 188.368 131.268 187.13Z" fill="#2F2E41"/>
<path d="M127.96 80.3267C127.96 80.3267 134.058 91.4396 131.841 105.331C129.623 119.222 138.494 153.672 138.494 153.672L145.147 152.005C145.147 152.005 140.711 123.111 141.82 116.444C142.929 109.776 142.929 83.6605 137.385 80.3267C131.841 76.9928 127.96 80.3267 127.96 80.3267Z" fill="#2F2E41"/>
<path d="M192.436 91.8752L194.766 153.394L199.201 156.172C199.201 156.172 205.577 88.6614 202.251 88.6614H195.482C195.068 88.6614 194.659 88.7457 194.279 88.9093C193.899 89.0729 193.556 89.3123 193.271 89.6129C192.986 89.9135 192.765 90.2691 192.621 90.6581C192.478 91.047 192.414 91.4611 192.436 91.8752V91.8752Z" fill="#2F2E41"/>
<path d="M141.543 152.283C143.074 152.283 144.315 151.039 144.315 149.504C144.315 147.97 143.074 146.726 141.543 146.726C140.012 146.726 138.771 147.97 138.771 149.504C138.771 151.039 140.012 152.283 141.543 152.283Z" fill="#6C63FF"/>
<path d="M196.984 155.061C198.515 155.061 199.756 153.817 199.756 152.283C199.756 150.748 198.515 149.504 196.984 149.504C195.453 149.504 194.212 150.748 194.212 152.283C194.212 153.817 195.453 155.061 196.984 155.061Z" fill="#6C63FF"/>
<path d="M154.849 17.8167V38.9311H159.728L165.937 32.2634L165.105 38.9311H186.672L185.341 32.2634L188.002 38.9311H191.44V17.8167H154.849Z" fill="#2F2E41"/>
<path d="M151.522 42.8207C152.44 42.8207 153.185 41.4525 153.185 39.7647C153.185 38.0769 152.44 36.7086 151.522 36.7086C150.603 36.7086 149.858 38.0769 149.858 39.7647C149.858 41.4525 150.603 42.8207 151.522 42.8207Z" fill="#FFB8B8"/>
<path d="M194.211 42.8207C195.13 42.8207 195.874 41.4525 195.874 39.7647C195.874 38.0769 195.13 36.7086 194.211 36.7086C193.293 36.7086 192.548 38.0769 192.548 39.7647C192.548 41.4525 193.293 42.8207 194.211 42.8207Z" fill="#FFB8B8"/>
<path d="M205.576 152.005C205.576 152.005 180.351 147.282 178.688 155.617C177.024 163.951 206.685 160.34 206.685 160.34L205.576 152.005Z" fill="#FFB8B8"/>
<path d="M205.022 94.7734C205.022 94.7734 265.453 143.114 254.365 154.783C243.277 166.451 201.142 163.118 201.142 163.118L203.914 149.227L228.308 146.448L216.111 134.224L205.022 135.335V94.7734Z" fill="#D0CDE1"/>
<path d="M115.763 175.342L123.524 181.454C123.524 181.454 129.068 198.679 137.385 193.678C145.701 188.677 129.623 170.897 129.623 170.897L120.198 167.563L115.763 175.342Z" fill="#FFB8B8"/>
<path d="M123.524 85.8833L115.783 88.2179C115.783 88.2179 61.9845 128.112 59.7668 139.225C57.5492 150.338 70.3006 156.45 70.3006 156.45L118.534 179.231L123.524 165.896L100.793 154.227C100.793 154.227 102.456 150.894 95.8034 150.338C89.1505 149.782 88.0416 142.559 88.0416 142.559C88.0416 142.559 101.347 122 108.555 126.445C115.762 130.89 117.98 134.224 117.98 134.224L123.524 85.8833Z" fill="#D0CDE1"/>
<path d="M233.931 189.034V190.895C233.932 191.406 233.837 191.912 233.652 192.388C233.57 192.601 233.471 192.806 233.355 193.002C232.991 193.615 232.473 194.123 231.854 194.476C231.234 194.828 230.534 195.013 229.822 195.013H93.1988C92.4864 195.013 91.7861 194.828 91.1666 194.476C90.5471 194.123 90.0297 193.615 89.665 193.002C89.5497 192.806 89.4504 192.601 89.3683 192.388C89.1833 191.912 89.0888 191.406 89.0899 190.895V189.034C89.0897 188.493 89.1959 187.957 89.4023 187.458C89.6088 186.958 89.9114 186.504 90.293 186.122C90.6746 185.739 91.1276 185.436 91.6262 185.229C92.1248 185.022 92.6592 184.916 93.1988 184.916H101.074V184.048C101.074 184.025 101.078 184.003 101.087 183.982C101.096 183.961 101.108 183.942 101.124 183.926C101.14 183.91 101.159 183.898 101.18 183.889C101.201 183.881 101.223 183.876 101.245 183.876H105.354C105.377 183.876 105.399 183.881 105.42 183.889C105.441 183.898 105.46 183.91 105.475 183.926C105.491 183.942 105.504 183.961 105.513 183.982C105.521 184.003 105.526 184.025 105.526 184.048V184.916H108.093V184.048C108.092 184.025 108.097 184.003 108.105 183.982C108.114 183.961 108.127 183.942 108.143 183.926C108.159 183.91 108.177 183.898 108.198 183.889C108.219 183.881 108.241 183.876 108.264 183.876H112.373C112.395 183.876 112.418 183.881 112.438 183.889C112.459 183.898 112.478 183.91 112.494 183.926C112.51 183.942 112.523 183.961 112.531 183.982C112.54 184.003 112.544 184.025 112.544 184.048V184.916H115.114V184.048C115.114 184.025 115.118 184.003 115.127 183.982C115.136 183.961 115.148 183.942 115.164 183.926C115.18 183.91 115.199 183.898 115.22 183.889C115.241 183.881 115.263 183.876 115.285 183.876H119.394C119.417 183.876 119.439 183.881 119.46 183.889C119.481 183.898 119.5 183.91 119.516 183.926C119.532 183.942 119.544 183.961 119.553 183.982C119.561 184.003 119.566 184.025 119.566 184.048V184.916H122.133V184.048C122.133 184.025 122.137 184.003 122.146 183.982C122.154 183.961 122.167 183.942 122.183 183.926C122.199 183.91 122.218 183.898 122.238 183.889C122.259 183.881 122.281 183.876 122.304 183.876H126.413C126.435 183.876 126.458 183.881 126.479 183.889C126.499 183.898 126.518 183.91 126.534 183.926C126.55 183.942 126.563 183.961 126.571 183.982C126.58 184.003 126.584 184.025 126.584 184.048V184.916H129.151V184.048C129.151 184.025 129.156 184.003 129.164 183.982C129.173 183.961 129.185 183.942 129.201 183.926C129.217 183.91 129.236 183.898 129.257 183.889C129.278 183.881 129.3 183.876 129.323 183.876H133.431C133.454 183.876 133.476 183.881 133.497 183.889C133.518 183.898 133.537 183.91 133.553 183.926C133.569 183.942 133.581 183.961 133.59 183.982C133.598 184.003 133.603 184.025 133.603 184.048V184.916H136.173V184.048C136.173 184.025 136.177 184.003 136.186 183.982C136.194 183.961 136.207 183.942 136.223 183.926C136.239 183.91 136.258 183.898 136.279 183.889C136.299 183.881 136.322 183.876 136.344 183.876H140.453C140.476 183.876 140.498 183.881 140.519 183.889C140.539 183.898 140.558 183.91 140.574 183.926C140.59 183.942 140.603 183.961 140.611 183.982C140.62 184.003 140.624 184.025 140.624 184.048V184.916H143.191V184.048C143.191 184.025 143.196 184.003 143.204 183.982C143.213 183.961 143.226 183.942 143.241 183.926C143.257 183.91 143.276 183.898 143.297 183.889C143.318 183.881 143.34 183.876 143.363 183.876H175.549C175.571 183.876 175.594 183.881 175.614 183.889C175.635 183.898 175.654 183.91 175.67 183.926C175.686 183.942 175.699 183.961 175.707 183.982C175.716 184.003 175.72 184.025 175.72 184.048V184.916H178.29V184.048C178.29 184.025 178.295 184.003 178.303 183.982C178.312 183.961 178.324 183.942 178.34 183.926C178.356 183.91 178.375 183.898 178.396 183.889C178.417 183.881 178.439 183.876 178.461 183.876H182.57C182.616 183.877 182.659 183.895 182.691 183.927C182.723 183.959 182.741 184.003 182.742 184.048V184.916H185.309V184.048C185.309 184.025 185.313 184.003 185.322 183.982C185.33 183.961 185.343 183.942 185.359 183.926C185.375 183.91 185.394 183.898 185.414 183.889C185.435 183.881 185.457 183.876 185.48 183.876H189.589C189.611 183.876 189.634 183.881 189.655 183.889C189.675 183.898 189.694 183.91 189.71 183.926C189.726 183.942 189.739 183.961 189.747 183.982C189.756 184.003 189.76 184.025 189.76 184.048V184.916H192.327V184.048C192.327 184.025 192.332 184.003 192.34 183.982C192.349 183.961 192.361 183.942 192.377 183.926C192.393 183.91 192.412 183.898 192.433 183.889C192.454 183.881 192.476 183.876 192.499 183.876H196.607C196.63 183.876 196.652 183.881 196.673 183.889C196.694 183.898 196.713 183.91 196.729 183.926C196.745 183.942 196.757 183.961 196.766 183.982C196.774 184.003 196.779 184.025 196.779 184.048V184.916H199.349V184.048C199.349 184.025 199.353 184.003 199.362 183.982C199.37 183.961 199.383 183.942 199.399 183.926C199.415 183.91 199.434 183.898 199.455 183.889C199.475 183.881 199.498 183.876 199.52 183.876H203.629C203.674 183.877 203.717 183.895 203.749 183.927C203.78 183.96 203.798 184.003 203.797 184.048V184.916H206.367V184.048C206.367 184.025 206.372 184.003 206.38 183.982C206.389 183.961 206.402 183.942 206.417 183.926C206.433 183.91 206.452 183.898 206.473 183.889C206.494 183.881 206.516 183.876 206.539 183.876H210.648C210.67 183.876 210.692 183.881 210.713 183.889C210.734 183.898 210.753 183.91 210.769 183.926C210.785 183.942 210.797 183.961 210.806 183.982C210.815 184.003 210.819 184.025 210.819 184.048V184.916H213.386V184.048C213.386 184.025 213.39 184.003 213.399 183.982C213.407 183.961 213.42 183.942 213.436 183.926C213.452 183.91 213.471 183.898 213.492 183.889C213.512 183.881 213.535 183.876 213.557 183.876H217.666C217.689 183.876 217.711 183.881 217.732 183.889C217.753 183.898 217.771 183.91 217.787 183.926C217.803 183.942 217.816 183.961 217.825 183.982C217.833 184.003 217.838 184.025 217.837 184.048V184.916H229.822C230.361 184.916 230.896 185.022 231.394 185.229C231.893 185.436 232.346 185.739 232.727 186.122C233.109 186.504 233.412 186.958 233.618 187.458C233.825 187.957 233.931 188.493 233.931 189.034V189.034Z" fill="#3F3D56"/>
<path d="M273.658 192.387H49.3955V193H273.658V192.387Z" fill="#3F3D56"/>
<path d="M222.93 110.648H172.007V109.596H148.916V110.648H97.7825C96.8689 110.648 95.9928 111.011 95.3468 111.659C94.7008 112.306 94.3379 113.184 94.3379 114.1V183.985C94.3379 184.901 94.7008 185.779 95.3468 186.426C95.9928 187.074 96.8689 187.438 97.7825 187.438H222.93C223.844 187.438 224.72 187.074 225.366 186.426C226.012 185.779 226.375 184.901 226.375 183.985V114.1C226.375 113.647 226.286 113.198 226.113 112.779C225.939 112.36 225.686 111.979 225.366 111.659C225.046 111.338 224.666 111.084 224.248 110.91C223.83 110.737 223.383 110.648 222.93 110.648V110.648Z" fill="#3F3D56"/>
<path d="M160.455 142.712C164.68 142.712 168.104 139.28 168.104 135.046C168.104 130.813 164.68 127.381 160.455 127.381C156.231 127.381 152.807 130.813 152.807 135.046C152.807 139.28 156.231 142.712 160.455 142.712Z" stroke="#D0CDE1" stroke-width="2" stroke-miterlimit="10"/>
<path d="M158.008 145.472C162.232 145.472 165.657 142.04 165.657 137.806C165.657 133.572 162.232 130.14 158.008 130.14C153.784 130.14 150.359 133.572 150.359 137.806C150.359 142.04 153.784 145.472 158.008 145.472Z" fill="#D0CDE1"/>
<path d="M65.7858 203.467H7.96094V204.161H65.7858V203.467Z" fill="#3F3D56"/>
<path d="M318.196 203.467H260.371V204.161H318.196V203.467Z" fill="#3F3D56"/>
<path d="M41.6518 181.134C35.56 191.101 37.6558 203.5 37.6558 203.5C37.6558 203.5 49.6285 199.738 55.7203 189.77C61.8121 179.803 59.7163 167.404 59.7163 167.404C59.7163 167.404 47.7436 171.166 41.6518 181.134Z" fill="#3F3D56"/>
<path d="M37.4071 203.582L37.0608 203.527C36.9355 203.507 24.4684 201.437 17.0019 192.484C9.53539 183.53 9.71507 170.866 9.71752 170.74L9.72495 170.388L10.0713 170.443C10.1966 170.463 22.6637 172.533 30.1302 181.487C37.5967 190.44 37.417 203.104 37.4146 203.231L37.4071 203.582Z" fill="#6C63FF"/>
<path d="M37.8991 203.898L37.5645 203.792C37.4435 203.754 25.4118 199.881 19.3305 189.931C13.2491 179.98 15.2727 167.478 15.2936 167.353L15.3522 167.007L15.6868 167.112C15.8078 167.15 27.8394 171.023 33.9208 180.974C40.0022 190.924 37.9786 203.426 37.9577 203.551L37.8991 203.898ZM15.8458 167.814C15.5688 169.912 14.4648 180.795 19.8521 189.61C25.2398 198.425 35.4151 202.384 37.4055 203.091C37.6825 200.992 38.7865 190.109 33.3992 181.294C28.0115 172.479 17.8363 168.52 15.8458 167.814H15.8458Z" fill="#3F3D56"/>
<path d="M38.0356 171.202C41.753 171.202 44.7666 168.182 44.7666 164.456C44.7666 160.73 41.753 157.71 38.0356 157.71C34.3182 157.71 31.3047 160.73 31.3047 164.456C31.3047 168.182 34.3182 171.202 38.0356 171.202Z" fill="#3F3D56"/>
<path d="M122.316 79.1894L83.7029 40.1847H65.4736V39.5714H83.9583L84.0483 39.6625L122.751 78.7583L122.316 79.1894Z" fill="#3F3D56"/>
<path d="M213.007 77.9629L251.62 38.9581H269.85V38.3448H251.365L251.275 38.4359L212.572 77.5317L213.007 77.9629Z" fill="#3F3D56"/>
<path d="M44.6689 20.9552H0V29.8099H44.6689V20.9552Z" fill="#D0CDE1"/>
<path d="M44.6689 34.5426H0V43.3973H44.6689V34.5426Z" fill="#D0CDE1"/>
<path d="M44.6689 48.13H0V56.9847H44.6689V48.13Z" fill="#D0CDE1"/>
<path opacity="0.15" d="M18.4791 20.9552H0V29.8099H18.4791V20.9552Z" fill="black"/>
<path opacity="0.15" d="M5.98245 34.5426H0V43.3973H5.98245V34.5426Z" fill="black"/>
<path opacity="0.15" d="M29.7793 48.13H0V56.9847H29.7793V48.13Z" fill="black"/>
<path d="M336.853 22.9446H292.115V26.94H336.853V22.9446Z" fill="#D0CDE1"/>
<path d="M284.215 22.4274H275.356V31.306H284.215V22.4274Z" fill="#6C63FF"/>
<path d="M284.215 35.7454H275.356V44.624H284.215V35.7454Z" fill="#6C63FF"/>
<path d="M284.215 49.0632H275.356V57.9419H284.215V49.0632Z" fill="#6C63FF"/>
<path d="M286.663 29.4663H277.192V19.9742H286.663V29.4663ZM277.804 28.853H286.051V20.5875H277.804V28.853Z" fill="#3F3D56"/>
<path d="M336.853 36.2625H292.115V40.2578H336.853V36.2625Z" fill="#D0CDE1"/>
<path d="M286.663 42.7842H277.192V33.2924H286.663V42.7842ZM277.804 42.171H286.051V33.9056H277.804V42.171Z" fill="#3F3D56"/>
<path d="M336.853 49.5804H292.115V53.5758H336.853V49.5804Z" fill="#D0CDE1"/>
<path d="M286.663 56.1021H277.192V46.6102H286.663V56.1021ZM277.804 55.4888H286.051V47.2235H277.804V55.4888Z" fill="#3F3D56"/>
<path d="M57.8249 30.3725C60.5285 30.3725 62.7201 28.1759 62.7201 25.4663C62.7201 22.7567 60.5285 20.5602 57.8249 20.5602C55.1214 20.5602 52.9297 22.7567 52.9297 25.4663C52.9297 28.1759 55.1214 30.3725 57.8249 30.3725Z" fill="#6C63FF"/>
<path d="M57.8249 45.0908C60.5285 45.0908 62.7201 42.8943 62.7201 40.1847C62.7201 37.4751 60.5285 35.2786 57.8249 35.2786C55.1214 35.2786 52.9297 37.4751 52.9297 40.1847C52.9297 42.8943 55.1214 45.0908 57.8249 45.0908Z" fill="#6C63FF"/>
<path d="M57.8249 58.276C60.5285 58.276 62.7201 56.0795 62.7201 53.3699C62.7201 50.6603 60.5285 48.4637 57.8249 48.4637C55.1214 48.4637 52.9297 50.6603 52.9297 53.3699C52.9297 56.0795 55.1214 58.276 57.8249 58.276Z" fill="#6C63FF"/>
<path d="M55.377 29.4525C54.3483 29.4525 53.3427 29.1468 52.4873 28.574C51.632 28.0012 50.9654 27.1871 50.5717 26.2346C50.178 25.2821 50.075 24.234 50.2757 23.2228C50.4764 22.2116 50.9718 21.2828 51.6992 20.5538C52.4266 19.8247 53.3533 19.3283 54.3623 19.1271C55.3712 18.926 56.417 19.0292 57.3674 19.4238C58.3178 19.8183 59.1301 20.4865 59.7016 21.3437C60.2731 22.2009 60.5781 23.2088 60.5781 24.2398C60.5766 25.6218 60.0281 26.9468 59.053 27.924C58.078 28.9013 56.7559 29.451 55.377 29.4525V29.4525ZM55.377 19.6402C54.4693 19.6402 53.582 19.91 52.8273 20.4154C52.0726 20.9208 51.4844 21.6392 51.137 22.4796C50.7897 23.3201 50.6988 24.2449 50.8759 25.1371C51.0529 26.0293 51.49 26.8488 52.1319 27.4921C52.7737 28.1353 53.5914 28.5734 54.4816 28.7509C55.3719 28.9284 56.2946 28.8373 57.1332 28.4891C57.9718 28.141 58.6885 27.5515 59.1928 26.7951C59.6971 26.0387 59.9662 25.1495 59.9662 24.2398C59.9649 23.0203 59.4809 21.8512 58.6205 20.9889C57.7602 20.1267 56.5937 19.6416 55.377 19.6402V19.6402Z" fill="#3F3D56"/>
<path d="M55.377 44.1709C54.3483 44.1709 53.3427 43.8652 52.4873 43.2924C51.632 42.7196 50.9654 41.9055 50.5717 40.953C50.178 40.0005 50.075 38.9524 50.2757 37.9412C50.4764 36.93 50.9718 36.0012 51.6992 35.2722C52.4266 34.5431 53.3533 34.0467 54.3623 33.8455C55.3712 33.6444 56.417 33.7476 57.3674 34.1422C58.3178 34.5367 59.1301 35.2048 59.7016 36.0621C60.2731 36.9193 60.5781 37.9272 60.5781 38.9581C60.5766 40.3402 60.0281 41.6652 59.053 42.6424C58.078 43.6197 56.7559 44.1694 55.377 44.1709V44.1709ZM55.377 34.3586C54.4693 34.3586 53.582 34.6284 52.8273 35.1338C52.0726 35.6392 51.4844 36.3575 51.137 37.198C50.7897 38.0384 50.6988 38.9632 50.8759 39.8555C51.0529 40.7477 51.49 41.5672 52.1319 42.2105C52.7737 42.8537 53.5914 43.2918 54.4816 43.4693C55.3719 43.6467 56.2946 43.5557 57.1332 43.2075C57.9718 42.8594 58.6885 42.2699 59.1928 41.5135C59.6971 40.7571 59.9662 39.8678 59.9662 38.9581C59.9649 37.7387 59.4809 36.5696 58.6205 35.7073C57.7602 34.845 56.5937 34.36 55.377 34.3586Z" fill="#3F3D56"/>
<path d="M55.377 57.3562C54.3483 57.3562 53.3427 57.0505 52.4873 56.4777C51.632 55.9049 50.9654 55.0908 50.5717 54.1383C50.178 53.1858 50.075 52.1377 50.2757 51.1265C50.4764 50.1153 50.9718 49.1865 51.6992 48.4575C52.4266 47.7284 53.3533 47.232 54.3623 47.0308C55.3712 46.8297 56.417 46.9329 57.3674 47.3275C58.3178 47.722 59.1301 48.3901 59.7016 49.2474C60.2731 50.1046 60.5781 51.1125 60.5781 52.1434C60.5766 53.5255 60.0281 54.8505 59.053 55.8277C58.078 56.805 56.7559 57.3547 55.377 57.3562V57.3562ZM55.377 47.5439C54.4693 47.5439 53.582 47.8137 52.8273 48.3191C52.0726 48.8245 51.4844 49.5428 51.137 50.3833C50.7897 51.2237 50.6988 52.1485 50.8759 53.0408C51.0529 53.933 51.49 54.7525 52.1319 55.3958C52.7737 56.039 53.5914 56.4771 54.4816 56.6546C55.3719 56.832 56.2946 56.741 57.1332 56.3928C57.9718 56.0447 58.6885 55.4552 59.1928 54.6988C59.6971 53.9424 59.9662 53.0531 59.9662 52.1434C59.9649 50.924 59.4809 49.7549 58.6205 48.8926C57.7602 48.0303 56.5937 47.5453 55.377 47.5439V47.5439Z" fill="#3F3D56"/>
<path d="M302.587 182.769H301.975V178.17C301.975 177.926 302.072 177.692 302.244 177.52C302.416 177.347 302.649 177.25 302.893 177.25H304.422C304.503 177.25 304.581 177.218 304.639 177.16C304.696 177.103 304.728 177.025 304.728 176.943V173.877C304.728 173.796 304.696 173.718 304.639 173.66C304.581 173.603 304.503 173.57 304.422 173.57H302.893C302.649 173.57 302.416 173.473 302.244 173.301C302.072 173.128 301.975 172.894 301.975 172.651V171.117C301.975 171.036 301.942 170.958 301.885 170.901C301.828 170.843 301.75 170.811 301.669 170.811H298.915C298.672 170.81 298.439 170.713 298.266 170.541C298.094 170.369 297.998 170.135 297.997 169.891V169.584C297.997 169.503 297.965 169.425 297.908 169.367C297.85 169.31 297.773 169.278 297.691 169.278H286.677C286.596 169.278 286.518 169.31 286.461 169.367C286.403 169.425 286.371 169.503 286.371 169.584V169.891C286.371 170.135 286.274 170.369 286.102 170.541C285.93 170.713 285.697 170.81 285.453 170.811H282.7C282.619 170.811 282.541 170.843 282.483 170.901C282.426 170.958 282.394 171.036 282.394 171.117V172.651C282.394 172.894 282.297 173.128 282.125 173.301C281.953 173.473 281.719 173.57 281.476 173.57H279.946C279.865 173.57 279.787 173.603 279.73 173.66C279.673 173.718 279.64 173.796 279.64 173.877V176.943C279.64 177.025 279.673 177.103 279.73 177.16C279.787 177.218 279.865 177.25 279.946 177.25H281.782C282.025 177.25 282.259 177.347 282.431 177.52C282.603 177.692 282.699 177.926 282.7 178.17V182.769H282.088V178.17C282.088 178.089 282.056 178.011 281.998 177.953C281.941 177.896 281.863 177.863 281.782 177.863H279.946C279.703 177.863 279.47 177.766 279.297 177.594C279.125 177.421 279.029 177.187 279.028 176.943V173.877C279.029 173.633 279.125 173.399 279.297 173.227C279.47 173.054 279.703 172.957 279.946 172.957H281.476C281.557 172.957 281.635 172.925 281.692 172.867C281.75 172.81 281.782 172.732 281.782 172.651V171.117C281.782 170.873 281.879 170.64 282.051 170.467C282.223 170.295 282.456 170.198 282.7 170.197H285.453C285.534 170.197 285.612 170.165 285.67 170.108C285.727 170.05 285.759 169.972 285.759 169.891V169.584C285.76 169.34 285.856 169.106 286.028 168.934C286.2 168.762 286.434 168.665 286.677 168.664H297.691C297.935 168.665 298.168 168.762 298.34 168.934C298.512 169.106 298.609 169.34 298.609 169.584V169.891C298.609 169.972 298.642 170.05 298.699 170.108C298.756 170.165 298.834 170.197 298.915 170.197H301.669C301.912 170.198 302.145 170.295 302.317 170.467C302.49 170.64 302.586 170.873 302.587 171.117V172.651C302.587 172.732 302.619 172.81 302.676 172.867C302.734 172.925 302.811 172.957 302.893 172.957H304.422C304.666 172.957 304.899 173.054 305.071 173.227C305.243 173.399 305.34 173.633 305.34 173.877V176.943C305.34 177.187 305.243 177.421 305.071 177.594C304.899 177.766 304.666 177.863 304.422 177.863H302.893C302.811 177.863 302.734 177.896 302.676 177.953C302.619 178.011 302.587 178.089 302.587 178.17V182.769Z" fill="#3F3D56"/>
<path d="M301.669 204.234H283.006C282.762 204.234 282.529 204.137 282.357 203.964C282.185 203.792 282.088 203.558 282.088 203.314V190.129H282.7V203.314C282.7 203.395 282.732 203.473 282.789 203.531C282.847 203.588 282.925 203.62 283.006 203.621H301.669C301.75 203.62 301.828 203.588 301.885 203.531C301.942 203.473 301.975 203.395 301.975 203.314V190.129H302.587V203.314C302.586 203.558 302.49 203.792 302.318 203.964C302.145 204.137 301.912 204.234 301.669 204.234V204.234Z" fill="#3F3D56"/>
<path d="M305.646 184.916H282.7C282.362 184.916 282.088 185.19 282.088 185.529V191.662C282.088 192 282.362 192.275 282.7 192.275H305.646C305.984 192.275 306.258 192 306.258 191.662V185.529C306.258 185.19 305.984 184.916 305.646 184.916Z" fill="#6C63FF"/>
<path d="M303.657 190.435H280.711C280.467 190.435 280.234 190.338 280.062 190.166C279.89 189.993 279.793 189.759 279.793 189.515V183.383C279.793 183.139 279.89 182.905 280.062 182.733C280.234 182.56 280.467 182.463 280.711 182.463H303.657C303.901 182.463 304.134 182.56 304.306 182.733C304.478 182.905 304.575 183.139 304.575 183.383V189.515C304.575 189.759 304.478 189.993 304.306 190.166C304.134 190.338 303.901 190.435 303.657 190.435ZM280.711 183.076C280.63 183.076 280.552 183.109 280.495 183.166C280.437 183.224 280.405 183.301 280.405 183.383V189.515C280.405 189.597 280.437 189.675 280.495 189.732C280.552 189.79 280.63 189.822 280.711 189.822H303.657C303.738 189.822 303.816 189.79 303.873 189.732C303.931 189.675 303.963 189.597 303.963 189.515V183.383C303.963 183.301 303.931 183.224 303.873 183.166C303.816 183.109 303.738 183.076 303.657 183.076H280.711Z" fill="#3F3D56"/>
<path d="M291.573 166.518C290.759 161.027 290.544 155.463 290.932 149.925L291.573 140.76C288.041 147.803 288.839 157.071 291.573 166.518V166.518Z" fill="#D0CDE1"/>
<path d="M294.325 168.051C293.934 164.774 293.83 161.469 294.017 158.175L294.325 152.719C292.626 156.911 293.01 162.428 294.325 168.051Z" fill="#D0CDE1"/>
</g>
<defs>
<clipPath id="clip0">
<rect width="336.853" height="204.234" fill="white"/>
</clipPath>
</defs>
</svg>
