<svg width="348" height="273" viewBox="0 0 348 273" fill="none" xmlns="http://www.w3.org/2000/svg">
<g clip-path="url(#clip0)">
<path d="M51.8416 222.482C80.0473 222.482 102.913 200.246 102.913 172.817C102.913 145.388 80.0473 123.152 51.8416 123.152C23.6358 123.152 0.770508 145.388 0.770508 172.817C0.770508 200.246 23.6358 222.482 51.8416 222.482Z" fill="#F2F2F2"/>
<path d="M60.1453 215.214C88.3511 215.214 111.216 192.978 111.216 165.549C111.216 138.12 88.3511 115.884 60.1453 115.884C31.9395 115.884 9.07422 138.12 9.07422 165.549C9.07422 192.978 31.9395 215.214 60.1453 215.214Z" fill="#6C63FF"/>
<path d="M69.6954 29.072H24.8525V72.68H69.6954V29.072Z" fill="#F2F2F2"/>
<path d="M75.9239 22.6116H31.0811V66.2196H75.9239V22.6116Z" fill="#6C63FF"/>
<path d="M137.903 268.381H72.1279V269.138H137.903V268.381Z" fill="#3F3D56"/>
<path d="M97.9298 57.3365H38.9697V0H97.9298V57.3365ZM39.8002 56.5289H97.0994V0.807556H39.8002V56.5289Z" fill="#3F3D56"/>
<path d="M137.375 111.039H125.749V122.345H137.375V111.039Z" fill="#F2F2F2"/>
<path d="M139.866 108.212H128.24V119.518H139.866V108.212Z" fill="#6C63FF"/>
<path d="M151.077 115.481H131.978V96.9067H151.077V115.481ZM132.808 114.673H150.247V97.7143H132.808V114.673Z" fill="#3F3D56"/>
<path d="M104.988 269.32C69.9593 269.32 41.4609 241.606 41.4609 207.542C41.4609 173.478 69.9593 145.764 104.988 145.764C140.017 145.764 168.516 173.478 168.516 207.542C168.516 241.606 140.017 269.32 104.988 269.32ZM104.988 146.571C70.4171 146.571 42.2914 173.923 42.2914 207.542C42.2914 241.161 70.4171 268.512 104.988 268.512C139.56 268.512 167.685 241.161 167.685 207.542C167.685 173.923 139.56 146.571 104.988 146.571Z" fill="#3F3D56"/>
<path d="M286.133 270.4H220.358V271.157H286.133V270.4Z" fill="#3F3D56"/>
<path d="M347.999 201.758H282.225V202.515H347.999V201.758Z" fill="#3F3D56"/>
<path d="M261.239 23.6061H261.239C248.707 26.9074 241.602 40.5472 245.37 54.0716L250.156 71.2545L255.591 69.8229L256.963 62.6277L257.95 69.2013L292.88 59.9996L294.128 53.4585L295.025 59.4345L298.958 58.3985L295.199 44.9068C290.864 29.3439 275.659 19.8072 261.239 23.6061Z" fill="#2F2E41"/>
<path d="M235.573 233.989L240.971 252.563L240.141 259.427L255.919 256.197C255.919 256.197 249.275 245.295 250.106 239.642L235.573 233.989Z" fill="#FFB8B8"/>
<path d="M306.989 167.366L302.837 189.17L316.539 187.151L317.162 164.338L306.989 167.366Z" fill="#FFB8B8"/>
<path d="M265.883 62.3838C274.139 62.3838 280.831 55.8758 280.831 47.8478C280.831 39.8198 274.139 33.3118 265.883 33.3118C257.628 33.3118 250.936 39.8198 250.936 47.8478C250.936 55.8758 257.628 62.3838 265.883 62.3838Z" fill="#FFB8B8"/>
<path d="M261.109 58.5478L260.278 66.6234L253.635 70.2574L271.074 107.809L284.36 76.7178L275.641 70.2574L274.811 54.9138L261.109 58.5478Z" fill="#FFB8B8"/>
<path d="M273.357 98.7236L256.352 68.7708C256.352 68.7708 242.631 69.6516 239.31 72.478L245.953 113.663L243.877 118.912C243.877 118.912 226.853 135.871 230.175 172.615C233.497 209.359 233.497 238.027 233.497 238.027C233.497 238.027 245.538 251.755 270.45 238.027V164.943L305.743 162.117V171C305.743 171 342.282 162.117 343.113 148.792L333.713 132.916C331.897 129.849 329.07 127.467 325.689 126.156C322.308 124.846 318.572 124.683 315.084 125.694L284.152 134.66L280.831 122.546L284.152 113.663C284.152 113.663 292.872 107.203 292.872 98.7236C292.872 90.2442 295.363 80.1498 295.363 80.1498L279.212 72.9033L273.357 98.7236Z" fill="#2F2E41"/>
<path d="M302.837 95.4934L309.481 111.241C309.481 111.241 316.539 119.316 317.785 128.199L319.861 138.698C319.861 138.698 324.843 157.271 316.954 156.464C309.065 155.656 311.141 137.89 311.141 137.89L309.896 132.641L302.837 121.335L292.422 102.083L302.837 95.4934Z" fill="#FFB8B8"/>
<path d="M304.083 185.536C304.083 185.536 315.964 186.669 318.328 181.459L330.241 190.785C330.241 190.785 351.818 196.404 339.791 201.283C328.581 205.831 317.37 200.976 317.37 202.091C317.37 202.091 314.048 199.264 310.311 201.283C306.574 203.302 295.364 201.283 295.779 198.053C296.194 194.823 297.855 183.113 304.083 185.536Z" fill="#2F2E41"/>
<path d="M240.556 254.582C240.556 254.582 252.437 255.715 254.8 250.505L266.714 259.831C266.714 259.831 288.374 265.649 276.264 270.329C265.065 274.657 253.848 270.088 253.842 271.137C253.842 271.137 250.521 268.31 246.784 270.329C243.047 272.348 231.836 270.329 232.251 267.099C232.667 263.869 234.328 252.159 240.556 254.582Z" fill="#2F2E41"/>
<path d="M289.966 78.5347L295.363 80.1498L306.989 97.1085L285.813 110.837L289.966 78.5347Z" fill="#2F2E41"/>
<path d="M269.568 28.6525C266.495 26.3999 262.631 25.4782 258.88 26.4664L258.435 26.5837C249.846 28.8464 244.988 38.2389 247.585 47.5625V47.5625L250.464 46.8043L249.97 43.2415L251.61 46.5023L268.679 42.0057L269.298 38.7183L269.752 41.7231L273.11 40.8385C276.785 47.9934 276.641 56.1542 272.68 65.321L278.4 63.814L279.638 57.2393L280.545 63.2489L291.449 60.3764L289.865 46.4222C287.071 36.3951 278.712 29.4705 269.568 28.6525Z" fill="#2F2E41"/>
<path d="M273.15 27.0531C277.277 27.0531 280.623 23.7991 280.623 19.7851C280.623 15.7711 277.277 12.5171 273.15 12.5171C269.022 12.5171 265.676 15.7711 265.676 19.7851C265.676 23.7991 269.022 27.0531 273.15 27.0531Z" fill="#2F2E41"/>
<path d="M272.734 23.8229C270.984 23.8238 269.289 23.2272 267.945 22.1372C266.602 21.0471 265.694 19.5328 265.381 17.8584C265.068 16.1841 265.369 14.456 266.233 12.9756C267.096 11.4953 268.466 10.3567 270.105 9.75854C269.058 9.88909 268.053 10.2336 267.153 10.7694C266.254 11.3052 265.481 12.0202 264.887 12.8672C264.292 13.7143 263.888 14.6742 263.703 15.6838C263.517 16.6934 263.553 17.7299 263.809 18.7249C264.065 19.7199 264.534 20.651 265.187 21.4568C265.839 22.2626 266.66 22.9249 267.595 23.4001C268.529 23.8753 269.557 24.1526 270.61 24.2138C271.663 24.2749 272.717 24.1186 273.703 23.755C273.382 23.7979 273.058 23.8206 272.734 23.8229V23.8229Z" fill="#2F2E41"/>
<path d="M275.433 50.4723C276.465 50.4723 277.301 49.2972 277.301 47.8477C277.301 46.3982 276.465 45.2231 275.433 45.2231C274.401 45.2231 273.564 46.3982 273.564 47.8477C273.564 49.2972 274.401 50.4723 275.433 50.4723Z" fill="#FFB8B8"/>
<path d="M239.517 189.372C229.239 187.884 216.787 188.23 203.394 189.372C208.978 179.415 208.978 170.666 203.394 163.126C215.391 164.543 227.52 164.543 239.517 163.126C234.373 171.455 234.827 180.24 239.517 189.372Z" fill="#6C63FF"/>
<path d="M234.743 96.7048L233.497 112.856C233.497 112.856 227.684 121.739 226.438 140.717L226.023 152.426C226.023 152.426 217.304 168.981 224.362 168.577C231.421 168.174 231.006 152.83 231.006 152.83L243.462 117.701V100.743L234.743 96.7048Z" fill="#FFB8B8"/>
<path d="M242.216 72.8818H239.31C239.31 72.8818 234.743 75.7083 231.006 87.8216C227.269 99.935 226.854 100.339 226.854 100.339L246.369 104.78L242.216 72.8818Z" fill="#2F2E41"/>
<path d="M227.477 171.202H215.851V182.508H227.477V171.202Z" fill="#D0CDE1"/>
</g>
<defs>
<clipPath id="clip0">
<rect width="347.229" height="272.229" fill="white" transform="translate(0.770508)"/>
</clipPath>
</defs>
</svg>
