<svg width="359" height="321" viewBox="0 0 359 321" fill="none" xmlns="http://www.w3.org/2000/svg">
<g clip-path="url(#clip0)">
<path d="M175.714 320.148C234.635 320.148 282.399 313.123 282.399 304.457C282.399 295.792 234.635 288.767 175.714 288.767C116.794 288.767 69.0293 295.792 69.0293 304.457C69.0293 313.123 116.794 320.148 175.714 320.148Z" fill="#3F3D56"/>
<path d="M172.891 66.4751C172.891 66.4751 175.495 77.8609 166.641 82.3163C166.641 82.3163 168.724 107.563 182.266 108.058C195.807 108.553 195.807 94.6922 195.807 94.6922L193.724 87.2666C193.724 87.2666 183.828 81.8212 190.078 71.4255L172.891 66.4751Z" fill="#FFB8B8"/>
<path d="M184.088 72.6631C197.607 72.6631 208.567 62.2462 208.567 49.3963C208.567 36.5465 197.607 26.1296 184.088 26.1296C170.568 26.1296 159.608 36.5465 159.608 49.3963C159.608 62.2462 170.568 72.6631 184.088 72.6631Z" fill="#2F2E41"/>
<path d="M158.307 119.444V147.166L201.536 145.681L198.411 118.454L158.307 119.444Z" fill="#FFB8B8"/>
<path d="M184.349 74.3958C192.978 74.3958 199.974 67.7467 199.974 59.5447C199.974 51.3427 192.978 44.6936 184.349 44.6936C175.719 44.6936 168.724 51.3427 168.724 59.5447C168.724 67.7467 175.719 74.3958 184.349 74.3958Z" fill="#FFB8B8"/>
<path d="M165.077 82.3163C165.077 82.3163 156.223 80.8312 153.098 82.3163C149.973 83.8014 146.327 83.3064 142.681 97.6624L135.91 127.365C135.91 127.365 134.869 136.275 142.681 135.285C150.494 134.295 149.973 121.424 149.973 121.424L155.181 110.038L164.556 100.138L165.077 82.3163Z" fill="#FFB8B8"/>
<path d="M194.766 88.2568C194.766 88.2568 207.266 89.7419 208.307 96.1774C209.349 102.613 203.62 128.85 203.62 128.85L194.766 120.434L199.453 104.098L194.766 88.2568Z" fill="#FFB8B8"/>
<path d="M162.733 82.0688L162.994 91.227L155.702 106.078L157.265 124.394L199.057 124.514L198.931 115.979C198.931 115.979 204.661 109.048 201.536 103.108C198.411 97.1674 196.067 88.0093 196.067 88.0093L191.9 85.5341C191.9 85.5341 198.931 101.128 184.348 98.6526C169.765 96.1774 168.983 80.5837 168.983 80.5837L162.733 82.0688Z" fill="#D0CDE1"/>
<path d="M150.495 181.819L143.203 220.926L134.869 277.856L131.224 284.291L134.349 290.727L143.203 286.766L146.849 271.42C146.849 271.42 159.349 257.064 157.265 238.748L179.661 187.759L150.495 181.819Z" fill="#FFB8B8"/>
<path d="M186.432 185.779L191.64 234.293C191.64 234.293 190.598 247.658 193.723 259.539C196.848 271.42 198.932 292.212 198.932 292.212H209.348L207.265 231.322L214.036 181.819L186.432 185.779Z" fill="#FFB8B8"/>
<path d="M179.141 141.226C179.141 141.226 157.266 139.741 157.266 142.216V147.166C157.266 147.166 153.099 153.602 153.62 159.542C154.141 165.482 133.828 178.848 146.849 184.789C159.87 190.729 177.057 192.709 179.662 190.729C182.266 188.749 183.828 180.829 183.828 180.829C183.828 180.829 183.828 189.739 188.516 190.234C193.203 190.729 221.328 185.284 221.328 180.829C221.328 176.373 200.486 136.523 200.486 136.523C200.486 136.523 185.391 141.721 179.141 141.226Z" fill="#2F2E41"/>
<path d="M133.828 284.786C133.828 284.786 131.744 281.321 129.661 283.796C127.578 286.271 119.765 292.212 119.765 292.212C119.765 292.212 100.494 297.162 113.515 304.588C113.515 304.588 124.973 304.588 129.661 301.122C134.348 297.657 139.036 299.142 139.036 299.142C139.036 299.142 146.328 298.647 146.849 295.677C147.369 292.707 144.12 282.905 144.12 282.905C144.12 282.905 140.598 287.261 133.828 284.786Z" fill="#2F2E41"/>
<path d="M203.099 287.756C203.099 287.756 196.849 286.271 196.849 287.756C196.849 289.241 187.995 298.152 195.286 302.112C202.578 306.073 203.62 305.083 204.14 309.043C204.661 313.003 218.203 315.973 220.286 313.498C222.37 311.023 223.932 306.568 221.328 304.588C218.724 302.607 210.39 290.231 210.39 287.756C210.39 285.281 203.099 287.756 203.099 287.756Z" fill="#2F2E41"/>
<path d="M190.474 95.5968C191.484 95.5968 192.302 95.2078 192.302 94.7278C192.302 94.2479 191.484 93.8589 190.474 93.8589C189.464 93.8589 188.646 94.2479 188.646 94.7278C188.646 95.2078 189.464 95.5968 190.474 95.5968Z" fill="#3F3D56"/>
<path d="M190.681 98.4011C192.747 98.4011 194.421 97.5877 194.421 96.5842C194.421 95.5808 192.747 94.7673 190.681 94.7673C188.616 94.7673 186.941 95.5808 186.941 96.5842C186.941 97.5877 188.616 98.4011 190.681 98.4011Z" fill="#6C63FF"/>
<path d="M195.086 97.6902H186.11V103.931H195.086V97.6902Z" fill="#6C63FF"/>
<path d="M201.196 107.446H179.919V138.017H201.196V107.446Z" fill="#6C63FF"/>
<path d="M202.151 107.09C202.151 110.101 196.933 109.065 190.599 109.065C184.264 109.065 178.88 110.022 178.88 107.011C178.88 104.001 184.264 100.85 190.599 100.85C196.933 100.85 202.151 104.08 202.151 107.09Z" fill="#6C63FF"/>
<path d="M202.151 110.329H179.129V112.699H202.151V110.329Z" fill="#3F3D56"/>
<path d="M202.317 133.238H179.295V135.608H202.317V133.238Z" fill="#3F3D56"/>
<path d="M202.151 122.969H179.129V127.708H202.151V122.969Z" fill="#3F3D56"/>
<path d="M201.985 136.951C201.985 137.954 202.32 140.821 190.848 140.821C177.882 140.821 178.962 137.796 178.962 136.793C178.962 135.789 184.697 137.188 190.848 137.188C196.998 137.188 201.985 135.947 201.985 136.951Z" fill="#6C63FF"/>
<path d="M195.835 96.5842H185.196V99.981H195.835V96.5842Z" fill="#3F3D56"/>
<path opacity="0.1" d="M182.329 114.714H180.916V122.139H182.329V114.714Z" fill="white"/>
<path opacity="0.1" d="M182.329 128.854H180.916V131.619H182.329V128.854Z" fill="white"/>
<path d="M205.702 122.909C205.702 122.909 195.807 110.533 196.327 119.444C196.848 128.355 202.577 132.81 203.619 132.81C204.661 132.81 208.827 131.82 205.702 122.909Z" fill="#FFB8B8"/>
<path opacity="0.1" d="M158.307 132.443C159.088 132.563 171.588 128.107 171.588 128.107L179.4 127.117L158.307 135.502L158.307 132.443Z" fill="black"/>
<path d="M142.161 123.899C142.161 123.899 146.327 121.424 154.661 122.414L170.807 118.454C170.807 118.454 185.911 110.038 191.64 120.434C197.369 130.83 170.286 127.365 170.286 127.365C170.286 127.365 152.057 141.226 141.119 133.8L142.161 123.899Z" fill="#FFB8B8"/>
<path d="M161.692 39.4958C165.719 39.4958 168.984 36.3929 168.984 32.5653C168.984 28.7377 165.719 25.6348 161.692 25.6348C157.665 25.6348 154.4 28.7377 154.4 32.5653C154.4 36.3929 157.665 39.4958 161.692 39.4958Z" fill="#2F2E41"/>
<path d="M206.484 37.5156C210.511 37.5156 213.776 34.4127 213.776 30.585C213.776 26.7574 210.511 23.6545 206.484 23.6545C202.457 23.6545 199.192 26.7574 199.192 30.585C199.192 34.4127 202.457 37.5156 206.484 37.5156Z" fill="#2F2E41"/>
<path d="M198.672 27.6148C198.672 25.9055 199.337 24.2565 200.539 22.9848C201.74 21.7131 203.394 20.9084 205.182 20.7253C204.164 20.6196 203.134 20.719 202.158 21.017C201.183 21.315 200.285 21.805 199.522 22.455C198.76 23.105 198.15 23.9004 197.732 24.7895C197.314 25.6785 197.099 26.6412 197.099 27.6148C197.099 28.5885 197.314 29.5512 197.732 30.4402C198.15 31.3292 198.76 32.1247 199.522 32.7747C200.285 33.4247 201.183 33.9147 202.158 34.2127C203.134 34.5107 204.164 34.6101 205.182 34.5044C203.394 34.3213 201.74 33.5165 200.539 32.2448C199.337 30.9731 198.672 29.3242 198.672 27.6148V27.6148Z" fill="#2F2E41"/>
<path d="M153.545 38.1712C152.287 36.9501 151.548 35.33 151.47 33.6223C151.392 31.9145 151.98 30.2396 153.123 28.9194C152.918 29.0729 152.721 29.2366 152.534 29.4099C151.154 30.6964 150.367 32.4515 150.348 34.289C150.329 36.1266 151.078 37.8963 152.431 39.2089C153.784 40.5215 155.63 41.2696 157.564 41.2886C159.497 41.3077 161.359 40.5962 162.741 39.3105C162.927 39.1366 163.103 38.9533 163.269 38.7616C161.857 39.8202 160.083 40.3455 158.288 40.2365C156.493 40.1275 154.804 39.392 153.545 38.1712V38.1712Z" fill="#2F2E41"/>
<path d="M184.088 38.5056C175.458 38.5056 168.463 42.3842 168.463 47.1688C168.463 49.3095 169.869 51.2661 172.19 52.7776L175.198 50.7061L174.38 53.9514C174.72 54.1009 175.066 54.2456 175.428 54.3793L179.921 49.3964V55.5179C181.299 55.7278 182.693 55.8328 184.088 55.8319C192.717 55.8319 199.713 51.9533 199.713 47.1688C199.713 42.3842 192.717 38.5056 184.088 38.5056Z" fill="#2F2E41"/>
<path d="M199.193 30.585C199.193 30.585 198.06 35.5353 205.137 37.5155Z" fill="#6C63FF"/>
<path d="M168.463 31.4861C168.463 31.4861 171.067 37.0206 163.255 39.4957Z" fill="#6C63FF"/>
<path d="M274.629 274.566C276.001 273.114 276.98 271.368 277.482 269.476C277.985 267.584 277.994 265.605 277.511 263.709C277.027 261.813 276.065 260.057 274.708 258.594C273.35 257.131 271.638 256.004 269.72 255.31C271.428 254.371 272.763 252.922 273.517 251.188C274.271 249.455 274.402 247.533 273.89 245.721C273.379 243.909 272.253 242.309 270.686 241.167C269.12 240.025 267.202 239.406 265.228 239.406C263.254 239.406 261.336 240.025 259.769 241.167C258.203 242.309 257.077 243.909 256.565 245.721C256.054 247.533 256.185 249.455 256.939 251.188C257.693 252.922 259.028 254.371 260.736 255.31C258.818 256.004 257.106 257.131 255.748 258.594C254.39 260.057 253.428 261.813 252.945 263.709C252.462 265.605 252.471 267.584 252.973 269.476C253.476 271.368 254.455 273.114 255.827 274.566C252.623 276.5 250.167 279.371 248.827 282.746C247.486 286.121 247.335 289.818 248.395 293.282C249.454 296.746 251.668 299.79 254.704 301.955C257.739 304.121 261.432 305.292 265.228 305.292C269.023 305.292 272.716 304.121 275.752 301.955C278.787 299.79 281.001 296.746 282.061 293.282C283.121 289.818 282.97 286.121 281.629 282.746C280.289 279.371 277.833 276.5 274.629 274.566V274.566Z" fill="#3F3D56"/>
<path d="M112.85 176.844C120.059 176.844 125.902 171.29 125.902 164.439C125.902 157.588 120.059 152.034 112.85 152.034C105.642 152.034 99.7988 157.588 99.7988 164.439C99.7988 171.29 105.642 176.844 112.85 176.844Z" fill="#6C63FF"/>
<path d="M110.04 174.581C111.313 173.602 110.507 170.649 108.239 167.987C105.972 165.324 103.101 163.96 101.828 164.94C100.555 165.919 101.361 168.872 103.629 171.534C105.896 174.197 108.767 175.561 110.04 174.581Z" fill="white"/>
<path d="M27.4802 140.239C34.6884 140.239 40.5318 134.685 40.5318 127.834C40.5318 120.983 34.6884 115.429 27.4802 115.429C20.2721 115.429 14.4287 120.983 14.4287 127.834C14.4287 134.685 20.2721 140.239 27.4802 140.239Z" fill="#3F3D56"/>
<path d="M21.753 126.366C22.6913 123.059 22.1697 120.049 20.588 119.644C19.0062 119.238 16.9633 121.591 16.0251 124.898C15.0868 128.206 15.6084 131.216 17.1902 131.621C18.7719 132.026 20.8147 129.674 21.753 126.366Z" fill="white"/>
<path d="M8.13561 62.6676C12.6277 62.6676 16.2693 59.2064 16.2693 54.9368C16.2693 50.6672 12.6277 47.2061 8.13561 47.2061C3.64352 47.2061 0.00195312 50.6672 0.00195312 54.9368C0.00195312 59.2064 3.64352 62.6676 8.13561 62.6676Z" fill="#3F3D56"/>
<path d="M4.56588 54.0221C5.15061 51.9609 4.82554 50.0852 3.83981 49.8326C2.85408 49.58 1.58098 51.0461 0.996247 53.1073C0.411517 55.1684 0.736591 57.0441 1.72232 57.2968C2.70805 57.5494 3.98115 56.0833 4.56588 54.0221Z" fill="white"/>
<path d="M92.409 253.916C96.9011 253.916 100.543 250.455 100.543 246.185C100.543 241.916 96.9011 238.454 92.409 238.454C87.917 238.454 84.2754 241.916 84.2754 246.185C84.2754 250.455 87.917 253.916 92.409 253.916Z" fill="#3F3D56"/>
<path d="M88.8403 245.271C89.425 243.209 89.1 241.334 88.1142 241.081C87.1285 240.828 85.8554 242.295 85.2707 244.356C84.6859 246.417 85.011 248.293 85.9967 248.545C86.9825 248.798 88.2556 247.332 88.8403 245.271Z" fill="white"/>
<path d="M345.094 167.869C352.303 167.869 358.146 162.315 358.146 155.464C358.146 148.613 352.303 143.059 345.094 143.059C337.886 143.059 332.043 148.613 332.043 155.464C332.043 162.315 337.886 167.869 345.094 167.869Z" fill="#3F3D56"/>
<path d="M336.196 161.666C337.834 161.666 339.162 158.889 339.162 155.464C339.162 152.038 337.834 149.261 336.196 149.261C334.558 149.261 333.229 152.038 333.229 155.464C333.229 158.889 334.558 161.666 336.196 161.666Z" fill="white"/>
<path d="M302.973 88.364C310.182 88.364 316.025 82.8101 316.025 75.959C316.025 69.1079 310.182 63.554 302.973 63.554C295.765 63.554 289.922 69.1079 289.922 75.959C289.922 82.8101 295.765 88.364 302.973 88.364Z" fill="#6C63FF"/>
<path d="M299.494 71.3925C302.412 69.3829 303.999 66.7316 303.038 65.4706C302.077 64.2096 298.932 64.8164 296.013 66.826C293.095 68.8355 291.508 71.4868 292.469 72.7478C293.43 74.0088 296.575 73.402 299.494 71.3925Z" fill="white"/>
<path d="M336.195 15.462C340.687 15.462 344.329 12.0008 344.329 7.73125C344.329 3.46167 340.687 0.000488281 336.195 0.000488281C331.703 0.000488281 328.062 3.46167 328.062 7.73125C328.062 12.0008 331.703 15.462 336.195 15.462Z" fill="#6C63FF"/>
<path d="M334.027 4.88561C335.846 3.63327 336.835 1.98099 336.236 1.19514C335.637 0.40929 333.677 0.787463 331.858 2.0398C330.039 3.29215 329.05 4.94443 329.649 5.73028C330.248 6.51612 332.208 6.13795 334.027 4.88561Z" fill="white"/>
<path d="M275.091 214.506C279.583 214.506 283.224 211.045 283.224 206.776C283.224 202.506 279.583 199.045 275.091 199.045C270.599 199.045 266.957 202.506 266.957 206.776C266.957 211.045 270.599 214.506 275.091 214.506Z" fill="#3F3D56"/>
<path d="M272.922 203.93C274.741 202.677 275.73 201.025 275.131 200.239C274.533 199.453 272.572 199.832 270.753 201.084C268.935 202.336 267.945 203.989 268.544 204.774C269.143 205.56 271.103 205.182 272.922 203.93Z" fill="white"/>
</g>
<defs>
<clipPath id="clip0">
<rect width="358.146" height="320.148" fill="white"/>
</clipPath>
</defs>
</svg>
